<?xml version="1.0" encoding="UTF-8"?>
<svg id="_レイヤー_1" data-name="レイヤー 1" xmlns="http://www.w3.org/2000/svg" xmlns:xlink="http://www.w3.org/1999/xlink" viewBox="0 0 32 32">
  <defs>
    <style>
      .cls-1, .cls-2 {
        fill: #fff;
      }

      .cls-3 {
        filter: url(#drop-shadow-1);
      }

      .cls-2 {
        stroke: #000;
        stroke-miterlimit: 10;
        stroke-width: .5px;
      }
    </style>
    <filter id="drop-shadow-1" x="-7" y="-4" width="46" height="40" filterUnits="userSpaceOnUse">
      <feOffset dx="0" dy="0"/>
      <feGaussianBlur result="blur" stdDeviation="3"/>
      <feFlood flood-color="#000" flood-opacity=".75"/>
      <feComposite in2="blur" operator="in"/>
      <feComposite in="SourceGraphic"/>
    </filter>
  </defs>
  <g>
    <rect class="cls-1" x=".5" y=".5" width="31" height="31"/>
    <path d="M31,1v30H1V1h30M32,0H0v32h32V0h0Z"/>
  </g>
  <g class="cls-3">
    <path class="cls-2" d="M13.27,7.64h-4.51v13.86h-1.67V7.64H2.59v-1.4h10.67v1.4Z"/>
    <path class="cls-2" d="M18.38,12.61c-.44-.28-1.4-.7-2.69-.7-2.13,0-2.93,1.3-2.93,2.41,0,1.5.92,2.27,2.97,3.13,2.47,1.04,3.73,2.31,3.73,4.49,0,2.43-1.77,4.29-5.06,4.29-1.38,0-2.89-.42-3.65-.96l.46-1.38c.82.54,2.05.94,3.29.94,2.05,0,3.25-1.1,3.25-2.75,0-1.5-.82-2.43-2.81-3.23-2.31-.86-3.87-2.21-3.87-4.31,0-2.33,1.89-4.03,4.67-4.03,1.44,0,2.55.36,3.13.72l-.5,1.38Z"/>
    <path class="cls-2" d="M27.84,8.11c-.44-.28-1.4-.7-2.69-.7-2.13,0-2.93,1.3-2.93,2.41,0,1.5.92,2.27,2.97,3.13,2.47,1.04,3.73,2.31,3.73,4.49,0,2.43-1.77,4.29-5.06,4.29-1.38,0-2.89-.42-3.65-.96l.46-1.38c.82.54,2.05.94,3.29.94,2.05,0,3.25-1.1,3.25-2.75,0-1.5-.82-2.43-2.81-3.23-2.31-.86-3.87-2.21-3.87-4.31,0-2.33,1.89-4.03,4.67-4.03,1.44,0,2.55.36,3.13.72l-.5,1.38Z"/>
  </g>
</svg>