<?xml version="1.0" encoding="UTF-8"?>
<svg xmlns="http://www.w3.org/2000/svg" viewBox="0 0 57 57">
  <defs>
    <style>
      .cls-1, .cls-2 {
        stroke: #000;
        stroke-miterlimit: 10;
        stroke-width: .5px;
      }

      .cls-2 {
        fill: #fff;
      }
    </style>
  </defs>
  <g id="_レイヤー_3" data-name="レイヤー 3">
    <rect class="cls-2" x="25.5" y="1.5" width="31" height="31"/>
  </g>
  <g id="_レイヤー_2" data-name="レイヤー 2">
    <path class="cls-1" d="M55.56,8.23l-11.49,6.57,4.92-11.49C39.15.02,37.5,13.15,37.5,13.15l-2.18.98h-1.26l-3.13,1.6v-.94c0-1.07-2.35-.72-5.51.23-.01,3.06.27,6.36.16,9.47,2.3-.42,3.89-.68,3.89-.68l5.57-2.75,2.8,2.75-2.8,4.28c.18,1.1-.07,2.8-.57,4.78,1.23.01,2.47.03,3.7,0,2.06-.05,4.1-.28,6.14-.1.63-2.26.77-4.06.04-4.87h-1.93l1.64-3.28v-1.64l1.64-1.64c8.21,0,11.49-9.85,9.85-13.13Z"/>
  </g>
</svg>